<?xml version="1.0" standalone="no"?>
<!DOCTYPE svg PUBLIC "-//W3C//DTD SVG 20010904//EN"
 "http://www.w3.org/TR/2001/REC-SVG-20010904/DTD/svg10.dtd">
<svg version="1.0" xmlns="http://www.w3.org/2000/svg"
 width="1236.000000pt" height="1236.000000pt" viewBox="0 0 1236.000000 1236.000000"
 preserveAspectRatio="xMidYMid meet">
<metadata>
Created by potrace 1.11, written by Peter Selinger 2001-2013
</metadata>
<g transform="translate(0.000000,1236.000000) scale(0.100000,-0.100000)"
fill="#000000" stroke="none">
<path d="M8280 12243 c-14 -7 -33 -13 -42 -13 -10 0 -18 -5 -18 -11 0 -5 -4
-7 -10 -4 -5 3 -20 -1 -32 -9 -12 -9 -29 -16 -37 -16 -8 0 -73 -29 -145 -64
-124 -60 -215 -103 -332 -155 -28 -13 -66 -25 -85 -27 -45 -5 -79 -12 -109
-23 -14 -5 -61 -20 -105 -32 -190 -52 -245 -75 -354 -143 -23 -15 -41 -23 -41
-20 0 4 -6 2 -12 -4 -32 -25 -86 -49 -97 -43 -7 5 -10 18 -7 32 3 13 8 50 11
82 5 53 21 92 52 125 15 16 16 22 4 40 -6 11 -17 11 -47 3 -21 -6 -48 -8 -60
-5 -12 3 -35 -1 -52 -10 -16 -8 -32 -12 -36 -9 -3 4 -6 0 -6 -7 0 -7 -3 -11
-6 -8 -16 16 -197 -62 -310 -133 -34 -22 -66 -39 -72 -39 -16 0 -84 -32 -104
-49 -10 -8 -18 -10 -18 -5 0 5 -4 4 -8 -2 -14 -20 -85 -63 -95 -57 -6 3 -7 1
-3 -5 4 -6 -21 -26 -61 -49 -110 -61 -296 -177 -327 -203 -15 -14 -63 -59
-105 -101 -42 -42 -92 -87 -111 -100 -19 -13 -51 -40 -70 -59 -19 -19 -64 -57
-100 -85 -82 -64 -107 -92 -119 -132 -5 -18 -16 -40 -25 -48 -13 -14 -16 -14
-25 3 -19 35 -23 68 -36 292 -3 47 -7 99 -8 115 -2 17 0 42 4 57 8 28 -8 53
-26 40 -42 -29 -108 -157 -147 -281 -32 -106 -33 -106 -42 -171 -4 -25 -15
-70 -23 -100 -9 -30 -17 -58 -19 -62 -1 -5 -2 -9 -4 -10 -1 -2 -3 -12 -5 -23
-5 -28 -21 -81 -43 -146 -11 -31 -23 -76 -26 -100 -3 -24 -8 -55 -11 -69 -4
-25 -14 -127 -19 -205 -4 -46 -16 -149 -22 -180 -2 -11 -6 -36 -9 -55 -3 -19
-8 -51 -11 -70 -3 -19 -7 -53 -9 -75 -2 -22 -9 -53 -15 -70 -7 -16 -14 -52
-16 -80 -2 -27 -3 -53 -4 -57 -1 -21 -36 -3 -84 45 -47 45 -136 173 -136 195
0 4 -11 19 -24 35 -26 30 -63 29 -51 -2 4 -9 13 -39 20 -67 8 -28 23 -80 35
-115 11 -35 26 -80 32 -99 10 -34 59 -146 79 -182 5 -10 9 -25 9 -33 0 -8 4
-15 9 -15 5 0 15 -16 22 -35 7 -19 16 -35 19 -35 4 0 17 -24 30 -52 12 -29 29
-60 35 -68 22 -26 97 -181 91 -187 -3 -3 -2 -11 2 -17 5 -6 19 -44 32 -83 13
-40 27 -73 32 -73 4 0 8 -6 8 -14 0 -8 7 -16 15 -20 8 -3 15 -12 15 -21 0 -8
4 -14 8 -12 5 1 27 -20 50 -46 23 -27 42 -46 42 -42 0 3 17 -13 38 -36 31 -35
121 -125 164 -166 7 -7 18 -18 25 -25 13 -16 92 -85 130 -115 15 -12 42 -33
58 -46 39 -31 203 -84 320 -103 17 -3 36 -7 44 -10 13 -4 65 -10 151 -18 14
-1 32 -6 39 -11 8 -5 12 -4 9 1 -4 5 33 9 85 9 51 0 106 5 123 12 23 9 34 9
42 1 9 -9 12 -9 12 1 0 7 5 9 10 6 6 -3 10 -2 10 3 0 5 19 8 43 7 23 -1 49 2
57 7 8 4 29 13 45 20 17 6 32 12 35 14 18 7 50 16 56 14 4 -1 10 4 14 11 8 11
150 62 150 53 0 -3 8 0 18 5 16 8 54 16 125 26 80 11 112 17 116 20 2 3 12 0
22 -6 11 -5 19 -6 19 -2 0 4 38 8 85 9 47 0 85 -4 85 -8 0 -4 14 -8 30 -8 17
0 30 -5 30 -11 0 -6 6 -9 13 -6 6 2 27 -2 45 -9 18 -7 35 -13 38 -13 17 3 64
-26 64 -39 0 -8 3 -12 6 -9 7 7 13 1 70 -70 18 -21 49 -57 71 -81 21 -23 47
-59 58 -80 11 -20 28 -46 38 -56 9 -11 17 -24 17 -28 0 -5 11 -21 24 -35 14
-15 23 -30 21 -34 -3 -4 2 -12 10 -19 8 -7 12 -16 9 -21 -3 -5 -1 -9 3 -9 5 0
10 -12 11 -27 1 -15 5 -29 10 -32 4 -3 8 -17 9 -31 5 -72 7 -86 16 -97 5 -7 7
-13 3 -13 -3 0 -1 -12 5 -26 5 -15 12 -43 14 -63 6 -41 13 -76 15 -76 4 0 9
-59 14 -155 3 -58 9 -138 14 -179 5 -40 8 -84 7 -97 0 -13 2 -24 6 -24 3 0 6
-15 6 -32 2 -87 13 -251 17 -255 3 -3 1 -16 -4 -29 -5 -13 -6 -24 -1 -24 5 0
8 -23 7 -51 -1 -28 1 -52 4 -54 3 -2 5 -40 5 -84 0 -45 2 -81 5 -81 3 0 6 -8
7 -17 3 -63 13 -146 17 -151 3 -3 1 -11 -5 -19 -6 -7 -7 -13 -2 -13 5 0 9 -34
8 -76 0 -42 2 -77 5 -79 3 -2 5 -28 5 -59 0 -31 2 -56 5 -56 9 0 6 -123 -3
-137 -5 -8 -3 -13 4 -13 10 0 10 -3 1 -12 -7 -7 -8 -17 -1 -30 7 -12 6 -18 -1
-18 -6 0 -8 -5 -4 -12 4 -7 10 -28 13 -48 6 -48 4 -543 -3 -655 -11 -167 -11
-195 -3 -195 4 0 3 -8 -2 -18 -5 -10 -6 -24 -1 -32 5 -8 5 -21 1 -29 -7 -17
-6 -48 3 -93 3 -16 8 -40 11 -55 6 -33 18 -130 19 -155 0 -10 4 -18 8 -18 4 0
7 -3 7 -7 -1 -5 0 -10 1 -13 1 -3 3 -18 5 -35 5 -58 14 -87 46 -170 7 -16 13
-32 14 -35 1 -3 5 -14 9 -25 4 -11 12 -31 16 -45 4 -14 11 -34 16 -45 17 -46
34 -150 38 -225 0 -14 3 -27 6 -30 13 -13 30 -64 30 -91 0 -17 11 -47 25 -67
14 -20 25 -32 25 -27 0 5 6 1 13 -8 11 -15 148 -45 285 -63 131 -17 370 -8
542 21 14 2 43 7 65 10 22 3 58 8 80 12 59 9 75 11 130 18 47 6 124 37 135 55
3 5 35 22 70 38 44 20 88 51 135 97 89 85 234 194 305 227 30 14 73 42 95 62
188 168 175 155 175 172 0 12 -24 19 -51 16 -57 -8 -139 -8 -139 -1 0 5 3 9 8
9 4 0 46 37 92 83 81 79 101 102 190 227 22 30 48 65 57 76 42 50 110 130 140
163 18 20 33 41 33 48 0 6 4 13 9 15 5 2 33 48 62 103 57 105 104 182 138 227
23 29 19 59 -7 53 -9 -2 -35 -12 -57 -23 -22 -11 -43 -18 -48 -15 -4 2 -39
-12 -78 -32 -39 -20 -68 -31 -64 -25 3 5 8 18 10 27 4 22 39 128 56 168 7 17
13 32 14 35 15 54 44 114 56 117 9 3 21 25 28 56 7 29 19 72 27 97 7 25 15 59
18 75 3 17 8 41 11 55 3 14 8 35 11 47 2 12 9 35 16 50 6 16 12 30 13 33 1 3
4 12 8 20 3 8 8 42 12 75 7 72 11 95 18 115 16 45 22 80 22 125 0 38 -4 50
-17 53 -10 2 -19 -6 -23 -19 -4 -13 -14 -29 -21 -37 -7 -7 -19 -21 -26 -31
-15 -21 -97 -81 -110 -81 -14 0 -37 63 -43 117 -3 26 -8 66 -11 88 -3 22 -8
78 -10 125 -5 86 -11 155 -14 155 -1 0 -4 74 -6 165 -2 91 -6 185 -9 210 -3
25 -7 81 -9 125 -3 44 -5 83 -5 88 -3 23 -50 -10 -55 -40 -6 -28 -23 -60 -45
-82 -9 -9 -24 -26 -32 -37 -18 -26 -69 -64 -83 -64 -19 0 -45 72 -80 228 -2 9
-15 43 -29 74 -14 31 -24 58 -21 60 2 2 -4 28 -12 58 -8 30 -22 84 -30 120 -8
36 -17 73 -20 83 -2 9 -6 25 -8 36 -11 50 -50 160 -67 194 -6 10 -12 36 -14
57 -4 48 -11 60 -36 60 -15 0 -19 -7 -20 -37 -1 -45 0 -44 -29 -158 -12 -50
-27 -99 -32 -109 -10 -18 -12 -17 -33 10 -13 16 -41 48 -62 71 -21 23 -47 59
-58 80 -10 21 -27 49 -36 63 -9 14 -24 50 -34 80 -10 30 -37 96 -60 145 -23
50 -50 106 -59 127 -19 42 -60 170 -58 179 1 4 -7 14 -18 24 -17 16 -19 16
-30 -4 -6 -12 -9 -21 -6 -21 10 0 -43 -130 -65 -159 -22 -28 -27 -30 -38 -17
-7 8 -15 30 -17 48 -3 18 -8 40 -11 48 -3 8 -7 22 -9 30 -2 9 -15 42 -29 73
-14 32 -25 64 -25 71 0 8 -3 16 -7 18 -5 2 -18 21 -29 43 -12 22 -32 60 -45
85 -13 25 -27 47 -31 48 -5 2 -8 8 -8 14 0 6 -11 19 -25 30 -14 11 -25 25 -25
32 0 16 -84 106 -99 106 -6 0 -13 -11 -17 -24 -3 -14 -12 -27 -21 -30 -8 -3
-11 -10 -8 -16 3 -5 1 -10 -5 -10 -6 0 -15 -11 -20 -24 -5 -14 -18 -29 -28
-35 -15 -8 -23 -5 -38 17 -27 38 -50 96 -69 175 -9 38 -25 96 -36 130 -11 34
-22 71 -25 82 -2 11 -6 29 -8 40 -2 11 -9 40 -16 65 -7 25 -14 56 -17 70 -2
14 -9 45 -15 70 -5 25 -12 65 -15 90 -3 25 -9 52 -14 61 -4 9 -5 19 -2 23 3 3
2 6 -4 6 -5 0 -10 6 -11 13 -1 6 -4 28 -7 47 -4 19 -7 45 -8 57 -4 49 -37 32
-42 -21 -3 -33 -21 -69 -44 -90 -35 -31 -231 -21 -231 12 0 4 15 33 33 63 41
69 147 282 152 306 10 51 56 129 113 193 12 13 22 31 22 38 0 18 -28 26 -44
13 -27 -22 -147 -50 -207 -48 -32 1 -59 4 -59 7 1 12 18 28 60 54 25 16 61 48
80 71 19 23 47 51 62 61 15 10 36 35 48 55 11 21 49 76 83 123 68 93 102 147
99 159 -1 4 3 7 8 7 6 0 10 5 10 10 0 6 5 16 10 23 6 7 27 32 48 57 45 55 74
84 135 133 26 22 45 42 42 47 -3 4 10 15 29 24 38 18 54 45 34 58 -14 8 -120
2 -181 -12 -40 -9 -69 -6 -109 9 -23 9 -23 9 7 21 17 6 53 29 82 51 29 21 56
39 62 39 8 0 105 87 214 193 27 26 68 57 90 69 22 11 46 25 54 32 32 29 43 36
53 36 5 0 10 4 10 8 0 5 29 28 65 51 36 24 62 47 59 52 -13 22 -76 41 -118 37
-59 -7 -78 5 -35 23 18 8 58 27 89 43 30 16 83 44 116 61 75 39 122 71 151
104 20 22 21 28 9 46 -9 13 -22 19 -37 17 -25 -4 -97 -4 -160 0 l-36 2 19 32
c11 18 33 37 50 43 17 6 45 21 62 34 17 12 42 27 56 33 60 27 81 38 101 57 28
26 24 29 -105 64 -55 15 -481 5 -538 -13 -10 -3 -59 -7 -110 -9 -95 -4 -103
-5 -173 -24 -41 -10 -66 -15 -144 -26 -23 -3 -53 -10 -65 -14 -12 -5 -43 -12
-69 -15 -51 -7 -62 -11 -150 -50 l-58 -26 6 32 c3 18 8 47 10 63 2 17 20 60
38 97 36 70 33 85 -13 61z"/>
<path d="M3007 8203 c-2 -2 -26 -6 -53 -9 -27 -2 -58 -7 -69 -10 -35 -10 -110
-47 -117 -58 -4 -6 -8 -7 -8 -1 0 17 -129 -117 -189 -195 -65 -85 -77 -106
-122 -205 -17 -38 -42 -93 -55 -122 -44 -94 -55 -125 -56 -153 0 -8 -9 -47
-19 -87 -11 -39 -19 -75 -17 -80 5 -17 -14 -102 -47 -213 -19 -63 -37 -142
-40 -175 -3 -33 -10 -103 -15 -155 -6 -52 -12 -160 -15 -240 -2 -80 -6 -163
-9 -185 -3 -22 -8 -58 -11 -80 -7 -53 -12 -93 -20 -135 -11 -68 -17 -105 -20
-130 -2 -14 -4 -25 -5 -25 -2 0 -8 -31 -14 -75 -5 -35 -11 -63 -22 -110 -3
-14 -7 -36 -10 -50 -6 -38 -12 -71 -30 -157 -3 -16 -7 -39 -9 -53 -1 -14 -4
-25 -5 -25 -3 0 -16 -68 -24 -125 -2 -14 -5 -26 -6 -27 -1 -2 -4 -12 -5 -23
-1 -11 -3 -21 -5 -22 -1 -2 -4 -15 -6 -30 -2 -16 -6 -40 -8 -55 -2 -16 -5 -28
-6 -28 -1 0 -3 -11 -5 -25 -2 -14 -6 -41 -10 -60 -3 -19 -7 -51 -9 -70 -2 -19
-5 -35 -6 -35 -3 0 -5 -19 -14 -125 -10 -126 -16 -148 -92 -375 -65 -196 -111
-362 -129 -465 -4 -19 -11 -60 -16 -90 -32 -185 -31 -582 1 -807 30 -212 36
-247 71 -379 49 -186 92 -298 210 -542 92 -191 121 -233 258 -377 73 -76 219
-209 396 -361 294 -252 391 -339 530 -479 89 -88 196 -203 240 -255 117 -142
171 -195 270 -269 185 -138 355 -218 710 -335 149 -48 200 -61 290 -70 11 -1
43 4 70 11 28 6 61 14 75 17 14 3 34 7 45 10 11 2 43 9 70 16 248 56 541 178
723 301 263 177 548 463 890 890 46 57 116 147 155 200 40 52 97 129 128 170
96 127 222 307 335 479 60 91 116 173 124 182 31 34 191 300 248 410 122 237
154 396 147 733 -3 121 -7 240 -9 265 -11 123 -18 187 -21 210 -2 14 -7 50
-10 80 -5 48 -11 101 -30 255 -3 22 -8 65 -11 95 -3 30 -8 58 -9 61 -2 3 -7
39 -10 79 -4 41 -8 77 -10 80 -2 3 -6 37 -10 75 -4 39 -9 73 -11 77 -2 3 -7
39 -10 80 -7 84 -24 172 -53 276 -11 40 -21 91 -22 115 -2 63 10 429 18 532 7
90 9 232 6 355 -2 36 0 198 2 360 3 162 6 320 6 350 1 30 -1 152 -4 270 -5
213 -6 224 -50 375 -13 46 -33 94 -45 113 -8 12 -16 40 -18 62 -4 37 -38 118
-56 130 -4 3 -24 39 -44 80 -29 61 -55 93 -136 173 -55 53 -112 104 -126 111
-48 25 -193 41 -223 26 -8 -5 -29 -11 -45 -14 -16 -2 -29 -5 -29 -6 0 -1 -12
-3 -27 -5 -14 -2 -37 -11 -51 -20 -30 -20 -267 -269 -405 -427 -133 -152 -289
-317 -477 -503 -83 -82 -183 -188 -222 -235 -39 -47 -96 -111 -126 -143 -30
-32 -60 -69 -67 -83 -19 -34 -77 -67 -125 -70 -22 -1 -42 -3 -45 -4 -3 -1 -9
-1 -15 0 -5 2 -155 4 -332 5 l-321 1 -24 30 c-13 16 -39 52 -58 79 -19 28 -38
52 -42 53 -4 2 -8 9 -8 14 0 6 -27 48 -60 94 -33 45 -60 87 -60 92 0 6 -3 12
-7 14 -15 6 -136 178 -126 178 4 0 0 6 -9 13 -18 15 -111 137 -104 137 3 0 -5
11 -17 24 -12 12 -62 81 -112 152 -49 71 -93 131 -97 132 -5 2 -8 8 -8 13 0 8
-45 71 -86 122 -8 9 -14 19 -14 22 0 13 -170 226 -221 277 -65 66 -119 94
-204 103 -72 8 -233 14 -238 8z"/>
</g>
</svg>
